<mxfile host="app.diagrams.net" modified="2023-09-25T12:29:30.810Z" agent="Mozilla/5.0 (Windows NT 10.0; Win64; x64) AppleWebKit/537.36 (KHTML, like Gecko) Chrome/117.0.0.0 Safari/537.36" etag="KY425Ye8_zpCbUJu2z5l" version="21.8.2" type="github">
  <diagram name="Page-1" id="822b0af5-4adb-64df-f703-e8dfc1f81529">
    <mxGraphModel dx="1366" dy="731" grid="1" gridSize="10" guides="1" tooltips="1" connect="1" arrows="1" fold="1" page="1" pageScale="1" pageWidth="1100" pageHeight="850" background="none" math="0" shadow="0">
      <root>
        <mxCell id="0" />
        <mxCell id="1" parent="0" />
        <mxCell id="WgnHCwtjE8G1V4Tuvzdv-1" value="" style="ellipse;shape=cloud;whiteSpace=wrap;html=1;" vertex="1" parent="1">
          <mxGeometry x="310" y="220" width="120" height="80" as="geometry" />
        </mxCell>
        <mxCell id="WgnHCwtjE8G1V4Tuvzdv-2" value="" style="swimlane;startSize=0;" vertex="1" parent="1">
          <mxGeometry x="520" y="320" width="200" height="177" as="geometry" />
        </mxCell>
        <mxCell id="WgnHCwtjE8G1V4Tuvzdv-3" value="" style="whiteSpace=wrap;html=1;" vertex="1" parent="WgnHCwtjE8G1V4Tuvzdv-2">
          <mxGeometry x="40" y="10" width="120" height="60" as="geometry" />
        </mxCell>
        <mxCell id="WgnHCwtjE8G1V4Tuvzdv-4" value="" style="whiteSpace=wrap;html=1;" vertex="1" parent="WgnHCwtjE8G1V4Tuvzdv-2">
          <mxGeometry x="40" y="80" width="120" height="60" as="geometry" />
        </mxCell>
        <mxCell id="WgnHCwtjE8G1V4Tuvzdv-9" value="" style="outlineConnect=0;dashed=0;verticalLabelPosition=bottom;verticalAlign=top;align=center;html=1;shape=mxgraph.aws3.vpn_gateway;fillColor=#F58534;gradientColor=none;" vertex="1" parent="WgnHCwtjE8G1V4Tuvzdv-2">
          <mxGeometry x="40" y="105" width="40" height="35" as="geometry" />
        </mxCell>
        <mxCell id="WgnHCwtjE8G1V4Tuvzdv-5" value="" style="endArrow=none;html=1;rounded=0;" edge="1" parent="1" source="WgnHCwtjE8G1V4Tuvzdv-1">
          <mxGeometry width="50" height="50" relative="1" as="geometry">
            <mxPoint x="470" y="370" as="sourcePoint" />
            <mxPoint x="520" y="320" as="targetPoint" />
          </mxGeometry>
        </mxCell>
        <mxCell id="WgnHCwtjE8G1V4Tuvzdv-6" value="" style="endArrow=none;html=1;rounded=0;entryX=0.06;entryY=1.005;entryDx=0;entryDy=0;entryPerimeter=0;" edge="1" parent="1" target="WgnHCwtjE8G1V4Tuvzdv-2">
          <mxGeometry width="50" height="50" relative="1" as="geometry">
            <mxPoint x="350" y="640" as="sourcePoint" />
            <mxPoint x="540" y="490" as="targetPoint" />
          </mxGeometry>
        </mxCell>
        <mxCell id="WgnHCwtjE8G1V4Tuvzdv-8" value="LAN" style="rounded=0;whiteSpace=wrap;html=1;" vertex="1" parent="1">
          <mxGeometry x="290" y="640" width="120" height="40" as="geometry" />
        </mxCell>
        <mxCell id="WgnHCwtjE8G1V4Tuvzdv-11" value="" style="edgeStyle=none;rounded=0;html=1;jettySize=auto;orthogonalLoop=1;strokeColor=#404040;strokeWidth=2;fontColor=#000000;jumpStyle=none;endArrow=none;endFill=0;startArrow=none;dashed=1;" edge="1" parent="1">
          <mxGeometry width="100" relative="1" as="geometry">
            <mxPoint x="260" y="510" as="sourcePoint" />
            <mxPoint x="1030" y="510" as="targetPoint" />
          </mxGeometry>
        </mxCell>
        <mxCell id="WgnHCwtjE8G1V4Tuvzdv-12" value="" style="edgeStyle=none;rounded=0;html=1;jettySize=auto;orthogonalLoop=1;strokeColor=#404040;strokeWidth=2;fontColor=#000000;jumpStyle=none;endArrow=none;endFill=0;startArrow=none;dashed=1;" edge="1" parent="1">
          <mxGeometry width="100" relative="1" as="geometry">
            <mxPoint x="240" y="310" as="sourcePoint" />
            <mxPoint x="1010" y="310" as="targetPoint" />
          </mxGeometry>
        </mxCell>
        <mxCell id="WgnHCwtjE8G1V4Tuvzdv-13" value="" style="endArrow=none;html=1;rounded=0;" edge="1" parent="1">
          <mxGeometry width="50" height="50" relative="1" as="geometry">
            <mxPoint x="720" y="370" as="sourcePoint" />
            <mxPoint x="810" y="370" as="targetPoint" />
          </mxGeometry>
        </mxCell>
        <mxCell id="WgnHCwtjE8G1V4Tuvzdv-14" value="DMZ" style="rounded=0;whiteSpace=wrap;html=1;" vertex="1" parent="1">
          <mxGeometry x="810" y="350" width="120" height="40" as="geometry" />
        </mxCell>
      </root>
    </mxGraphModel>
  </diagram>
</mxfile>
